# xmcd
#
# Track frame offsets:
# 150
# 15625
# 28942
# 42302
# 54425
# 65720
# 77860
# 91402
# 103232
# 114485
# 128767
# 141127
# 154640
# 166592
# 178750
# 191517
# 206177
# 220690
#
# Disc length: 3118 seconds
#
# Revision: 1
# Processed by: cddbd v1.5.1PL0 Copyright (c) Steve Scherf et al.
# Submitted via: CedeCatalogueitor 2.6.0.4 http://personales.ya.com/cdcatalogueitor
#
DISCID=fc0c2c12
DTITLE=PEPE MARCHENA - UN MONUMENTO AL CANTE [CD-1)
DYEAR=1997
DGENRE=FLAMENCO
TTITLE0=Oración De Los Pastores De Marchena
TTITLE1=Que No Te Guardo Rencor
TTITLE2=Me Gusta Estar En La Sierra
TTITLE3=La Rosa - De Amores Y Amoríos
TTITLE4=Que Al Molino Va A Parar
TTITLE5=Porque Volar No Podía
TTITLE6=Contigo Salgo Soñando
TTITLE7=Alegrias - Aire De Barbate
TTITLE8=Fandangos De La Plaza Del Potro
TTITLE9=Canción De Los Cañaverales
TTITLE10=Melodías De Marchena A Soleá
TTITLE11=Fandangos De La Ribera De Cazorla
TTITLE12=Carmenes Granainas - Los Cuatro Muleros - Un Alto En El Camino
TTITLE13=Deja Franca La Vera
TTITLE14=Cante De Los Picos De Guanabacoa
TTITLE15=Te Escuchan Hasta Las Flores - Eres Bonita Y Serrana.....
TTITLE16=Cante Del Puente De Genave
TTITLE17=Cantes De Chiclana
EXTD=
EXTT0=
EXTT1=
EXTT2=
EXTT3=
EXTT4=
EXTT5=
EXTT6=
EXTT7=
EXTT8=
EXTT9=
EXTT10=
EXTT11=
EXTT12=
EXTT13=
EXTT14=
EXTT15=
EXTT16=
EXTT17=
PLAYORDER=
